<?xml version="1.0" encoding="UTF-8"?>
<svg width="675px" height="565px" viewBox="0 0 675 565" version="1.1" xmlns="http://www.w3.org/2000/svg" xmlns:xlink="http://www.w3.org/1999/xlink">
    <title>undraw_Booking_re_gw4j</title>
    <g id="Page-1" stroke="none" stroke-width="1" fill="none" fill-rule="evenodd">
        <g id="undraw_Booking_re_gw4j" fill-rule="nonzero">
            <path d="M673,33 L673,109 L671,109 L671,108.19 L2,108.19 L2,109 L0,109 L0,33 C0.0178824752,14.7820156 14.7820156,0.0178824752 33,5.68434189e-14 L640,5.68434189e-14 C658.217984,0.0178824752 672.982118,14.7820156 673,33 L673,33 Z" id="Path" fill="#378C21"></path>
            <path d="M640,0 L33,0 C14.7820156,0.0178824752 0.0178824752,14.7820156 0,33 L0,467 C0.0178824752,485.217984 14.7820156,499.982118 33,500 L640,500 C658.217984,499.982118 672.982118,485.217984 673,467 L673,33 C672.982118,14.7820156 658.217984,0.0178824752 640,0 L640,0 Z M671,467 C670.978161,484.111773 657.111773,497.978161 640,498 L33,498 C15.8882247,497.978166 2.02183363,484.111775 2,467 L2,33 C2.02183363,15.8882247 15.8882247,2.02183363 33,2 L640,2 C657.111773,2.02183913 670.978161,15.888227 671,33 L671,467 Z" id="Shape" fill="#3F3D56"></path>
            <circle id="Oval" fill="#EEEEEE" cx="136" cy="54.5" r="20"></circle>
            <circle id="Oval" fill="#EEEEEE" cx="537" cy="54.5" r="20"></circle>
            <path d="M193.78463,277.50191 L74.8084,277.50191 C64.3135931,277.490034 55.8088315,268.985277 55.79695,258.49047 L55.79695,202.25784 C55.8088315,191.763033 64.3135931,183.258276 74.8084,183.2464 L193.78463,183.2464 C204.279437,183.258276 212.784199,191.763033 212.79608,202.25784 L212.79608,258.49047 C212.784199,268.985277 204.279437,277.490034 193.78463,277.50191 Z" id="Path" fill="#378C21"></path>
            <path d="M396.1832,277.50191 L277.20696,277.50191 C266.712157,277.490029 258.207401,268.985273 258.19552,258.49047 L258.19552,202.25784 C258.207401,191.763037 266.712157,183.258281 277.20696,183.2464 L396.1832,183.2464 C406.678003,183.258281 415.182759,191.763037 415.19464,202.25784 L415.19464,258.49047 C415.182759,268.985273 406.678003,277.490029 396.1832,277.50191 L396.1832,277.50191 Z" id="Path" fill="#378C21"></path>
            <path d="M396.1832,422.79329 L277.20696,422.79329 C266.394099,422.781122 257.631578,414.018601 257.61941,403.20574 L257.61941,346.97255 C257.631573,336.159687 266.394097,327.397163 277.20696,327.385 L396.1832,327.385 C406.996051,327.397179 415.758557,336.159699 415.77072,346.97255 L415.77072,403.20574 C415.758557,414.018591 406.996051,422.781111 396.1832,422.79329 Z" id="Path" fill="#EEEEEE"></path>
            <path d="M193.39447,422.79329 L74.41823,422.79329 C63.6053847,422.7811 54.8428882,414.018585 54.83072,403.20574 L54.83072,346.97255 C54.8428827,336.159702 63.6053824,327.397185 74.41823,327.385 L193.39447,327.385 C204.207329,327.397163 212.969852,336.159681 212.98202,346.97254 L212.98202,403.20573 C212.969857,414.018595 204.207335,422.781122 193.39447,422.79329 L193.39447,422.79329 Z" id="Path" fill="#EEEEEE"></path>
            <path d="M598.58172,422.79329 L479.60552,422.79329 C468.792661,422.781122 460.030143,414.018599 460.01798,403.20574 L460.01798,346.97255 C460.030143,336.159691 468.792661,327.397168 479.60552,327.385 L598.58172,327.385 C609.394579,327.397163 618.157102,336.159681 618.16927,346.97254 L618.16927,403.20573 C618.157107,414.018595 609.394585,422.781122 598.58172,422.79329 L598.58172,422.79329 Z" id="Path" fill="#EEEEEE"></path>
            <path d="M598.58172,277.615 L479.60552,277.615 C468.792665,277.602832 460.030148,268.840315 460.01798,258.02746 L460.01798,201.79426 C460.030143,190.981401 468.792661,182.218878 479.60552,182.20671 L598.58172,182.20671 C609.394581,182.218878 618.157102,190.981399 618.16927,201.79426 L618.16927,258.02745 C618.157107,268.840313 609.394583,277.602837 598.58172,277.615 Z" id="Path" fill="#EEEEEE"></path>
            <circle id="Oval" fill="#EEEEEE" cx="134.29652" cy="230.37416" r="32.26184"></circle>
            <path d="M131.09862,242.681313 C130.372769,242.68266 129.666162,242.447941 129.08539,242.01255 L129.04939,241.98555 L121.46764,236.18069 C120.511025,235.449241 120.017656,234.26275 120.173596,233.068676 C120.329536,231.874602 121.111061,230.854605 122.223436,230.393356 C123.335811,229.932106 124.609806,230.099775 125.56496,230.83313 L130.47585,234.59873 L142.08105,219.46386 C142.624622,218.754906 143.427572,218.290934 144.313245,218.174019 C145.198918,218.057104 146.09476,218.296824 146.80368,218.84044 L146.73153,218.93844 L146.80553,218.84189 C148.279847,219.975003 148.55873,222.087696 147.42894,223.56456 L133.77844,241.3668 C133.138521,242.198269 132.147824,242.684224 131.09862,242.681313 L131.09862,242.681313 Z" id="Path" fill="#6C63FF"></path>
            <circle id="Oval" fill="#EEEEEE" cx="337.27119" cy="229.91085" r="32.26184"></circle>
            <path d="M334.07329,242.218013 C333.347438,242.219362 332.640827,241.984647 332.06005,241.54926 L332.02405,241.52226 L324.44229,235.7174 C322.965602,234.585954 322.685729,232.471643 323.817175,230.994955 C324.948621,229.518267 327.062932,229.238394 328.53962,230.36984 L333.4505,234.13544 L345.0557,219.00056 C345.599279,218.291612 346.40223,217.827644 347.287903,217.710731 C348.173576,217.593818 349.069417,217.833537 349.77834,218.37715 L349.70619,218.47515 L349.78019,218.37861 C351.254516,219.511713 351.5334,221.624412 350.4036,223.10127 L336.75311,240.90351 C336.113189,241.734975 335.122492,242.220926 334.07329,242.218013 L334.07329,242.218013 Z" id="Path" fill="#6C63FF"></path>
            <path d="M555.31223,382.14979 C557.457755,379.803666 558.453894,376.627708 558.032607,373.476504 C557.61132,370.3253 555.815882,367.52255 553.12941,365.82242 L535.11824,269.64969 L513.21366,277.77232 L537.80585,369.75286 C535.191482,374.560823 536.586373,380.56432 541.052715,383.727106 C545.519057,386.889892 551.645109,386.212259 555.31223,382.14979 L555.31223,382.14979 Z" id="Path" fill="#A0616A"></path>
            <path d="M380.5273,235.40038 C380.581792,235.997568 380.589105,236.598123 380.54917,237.19646 L423.13917,269.97601 L435.21687,265.01644 L445.08409,282.26555 L424.55609,293.12336 C421.149594,294.92515 416.962657,294.262082 414.27957,291.49591 L371.70857,247.60671 C367.09463,248.647307 362.318183,246.724318 359.712348,242.777053 C357.106513,238.829787 357.215047,233.681918 359.984936,229.847991 C362.754825,226.014064 367.608077,224.294101 372.174058,225.528242 C376.740039,226.762382 380.065967,230.693099 380.52725,235.40038 L380.5273,235.40038 Z" id="Path" fill="#A0616A"></path>
            <polygon id="Path" fill="#A0616A" points="480.028 552.849 467.769 552.849 461.936 515.561 480.031 515.562"></polygon>
            <path d="M483.15489,564.73337 L443.62438,564.73191 L443.62438,564.23191 C443.62438,560.151172 445.245394,556.23756 448.130935,553.352065 C451.016475,550.46657 454.930112,548.84568 459.01085,548.84568 L459.01185,548.84568 L483.15565,548.84668 L483.15489,564.73337 Z" id="Path" fill="#424242"></path>
            <polygon id="Path" fill="#A0616A" points="526.028 552.849 513.769 552.849 507.936 515.561 526.031 515.562"></polygon>
            <path d="M529.15489,564.73337 L489.62438,564.73191 L489.62438,564.23191 C489.62438,560.151172 491.245394,556.23756 494.130935,553.352065 C497.016475,550.46657 500.930112,548.84568 505.01085,548.84568 L505.01185,548.84568 L529.15565,548.84668 L529.15489,564.73337 Z" id="Path" fill="#424242"></path>
            <path d="M465.22302,545.4793 C462.903476,545.481454 460.964054,543.716516 460.74817,541.40704 L450.06458,397.71758 L450.56946,397.67658 L524.09046,391.63358 L524.11024,392.15604 L529.95472,541.00664 C530.000468,542.228468 529.547029,543.416304 528.698733,544.296843 C527.850437,545.177383 526.680334,545.674692 525.45765,545.674692 L511.04211,545.674692 C508.817263,545.685268 506.922498,544.059787 506.5946,541.85921 L487.01843,421.61407 C486.978709,421.356561 486.747896,421.172721 486.488027,421.19161 C486.228158,421.210499 486.026356,421.425784 486.02429,421.68633 L485.13635,540.41 C485.117245,542.790025 483.249857,544.744467 480.87317,544.87192 L465.46448,545.4725 C465.38367,545.47735 465.30286,545.4793 465.22302,545.4793 Z" id="Path" fill="#212121"></path>
            <circle id="Oval" fill="#A0616A" cx="477.7719" cy="191.56438" r="24.56103"></circle>
            <path d="M482.52664,406.88164 C471.79149,406.849603 461.108312,405.389531 450.75825,402.53985 C448.705095,401.942209 447.353763,399.985024 447.52245,397.85332 C450.8289,348.15996 451.6063,309.59649 444.65339,282.91432 C441.68997,271.54225 443.03539,259.5652 448.34447,250.05446 C456.33439,235.74146 471.01994,227.03004 486.68463,227.33082 L486.68463,227.33082 C487.43321,227.34498 488.189227,227.371673 488.95268,227.4109 C512.72558,228.63502 531.25003,250.14137 530.24696,275.3528 L525.46519,395.52125 C525.42947,397.314086 524.318795,398.909435 522.64981,399.5652 C509.822527,404.390883 496.231612,406.869179 482.52664,406.88164 L482.52664,406.88164 Z" id="Path" fill="#0F4900"></path>
            <path d="M448.69515,292.14084 L430.29753,269.59635 C429.238324,268.298351 428.796557,266.603592 429.087343,264.953694 C429.378129,263.303797 430.372667,261.86218 431.8118,261.0045 L456.73328,246.15445 C463.597984,240.615597 473.650397,241.676829 479.207191,248.527019 C484.763985,255.377208 483.729057,265.432362 476.89343,271.00706 L457.41614,292.38012 C456.287309,293.618048 454.675549,294.303322 453.000851,294.257373 C451.326153,294.211424 449.754393,293.438803 448.69514,292.14084 L448.69515,292.14084 Z" id="Path" fill="#0F4900"></path>
            <path d="M506.57008,289.31194 C505.040785,288.627735 503.885542,287.311105 503.40599,285.70583 L495.12399,258.00057 C491.380555,250.012746 494.808233,240.50206 502.786767,236.738867 C510.765302,232.975674 520.284442,236.379803 524.06737,244.349 L540.08372,268.53743 C541.008549,269.934357 541.279536,271.664653 540.826067,273.27744 C540.372599,274.890227 539.239591,276.225761 537.72228,276.93603 L511.36802,289.27213 C509.850767,289.983256 508.098924,289.997791 506.57008,289.31194 L506.57008,289.31194 Z" id="Path" fill="#0F4900"></path>
            <path d="M489.90886,211.71724 L471.70286,207.55019 C469.82492,207.12036 467.56873,206.30028 467.30829,204.39146 C466.95829,201.82633 470.64978,200.03933 470.30929,197.47292 C469.97946,194.98714 466.61675,194.66677 464.21894,193.93301 C459.576356,192.304579 457.06526,187.284375 458.54658,182.59278 C455.95221,186.24878 450.02503,186.56191 446.66003,183.5999 C443.29503,180.63789 442.6496,175.26377 444.6704,171.26213 C446.884691,167.275477 450.86906,164.585358 455.3944,164.02163 C459.880444,163.51293 464.416074,164.358501 468.41746,166.4495 C468.6841,163.61611 472.22167,162.46743 475.06746,162.44215 C487.185387,162.583373 497.881769,170.390447 501.71061,181.88845 C505.20261,193.14057 502.8668,205.4748 493.09641,212.05838 L489.90886,211.71724 Z" id="Path" fill="#212121"></path>
            <path d="M673.2874,565 L292.2874,565 C291.735115,565 291.2874,564.552285 291.2874,564 C291.2874,563.447715 291.735115,563 292.2874,563 L673.2874,563 C673.839685,563 674.2874,563.447715 674.2874,564 C674.2874,564.552285 673.839685,565 673.2874,565 Z" id="Path" fill="#3F3D56"></path>
        </g>
    </g>
</svg>