<?xml version="1.0" encoding="UTF-8"?>
<svg width="927px" height="493px" viewBox="0 0 927 493" version="1.1" xmlns="http://www.w3.org/2000/svg" xmlns:xlink="http://www.w3.org/1999/xlink">
    <title>undraw_Sorting_thoughts_re_fgli</title>
    <g id="Page-1" stroke="none" stroke-width="1" fill="none" fill-rule="evenodd">
        <g id="undraw_Sorting_thoughts_re_fgli" fill-rule="nonzero">
            <path d="M369.01182,0 L369.01182,250 L926.01182,250 L926.01182,0 L369.01182,0 Z M371.01182,248 L371.01182,2 L508.01182,2 L508.01182,248 L371.01182,248 Z M510.01182,2 L668.01182,2 L668.01182,248 L510.01182,248 L510.01182,2 Z M924.01182,248 L670.01182,248 L670.01182,2 L924.01182,2 L924.01182,248 Z" id="Shape" fill="#BDBDBD"></path>
            <path d="M432.38746,122.24329 L394.49396,122.24329 C398.75629,104.75602 402.85084,88.42978 394.49396,76.77108 L432.38746,76.77108 C439.51976,91.94436 439.51976,107.101763 432.38746,122.24329 Z" id="Path" fill="#378C21"></path>
            <path d="M622.89222,207.69166 L584.99866,207.69166 C582.62866,186.61219 587.85766,170.90034 584.99866,162.21946 L622.89222,162.21946 C621.43616,177.341892 621.43616,192.569228 622.89222,207.69166 L622.89222,207.69166 Z" id="Path" fill="#BDBDBD"></path>
            <path d="M576.59376,141.45316 L538.7002,141.45316 C540.12104,123.96869 544.7022,107.64194 538.7002,95.98095 L576.5937,95.98095 C583.72822,111.138317 583.72824,126.29572 576.59376,141.45316 Z" id="Path" fill="#378C21"></path>
            <path d="M609.32929,111.71757 L647.22279,111.71757 C649.59266,94.22996 644.36379,77.90375 647.22279,66.24535 L609.32929,66.24535 C602.19483,81.40275 602.19483,96.5601567 609.32929,111.71757 Z" id="Path" fill="#7BC867"></path>
            <path d="M433.54542,193.71445 L471.43891,193.71445 C473.80878,176.22684 468.57991,159.90064 471.43891,148.24225 L433.54542,148.24225 C426.4109,163.39963 426.4109,178.55703 433.54542,193.71445 Z" id="Path" fill="#BDBDBD"></path>
            <rect id="Rectangle" fill="#BDBDBD" x="406.11533" y="21.45654" width="55.89648" height="2"></rect>
            <rect id="Rectangle" fill="#BDBDBD" x="560.11533" y="21.45654" width="55.89648" height="2"></rect>
            <rect id="Rectangle" fill="#BDBDBD" x="769.11533" y="21.45654" width="55.89648" height="2"></rect>
            <path d="M58.91346,345.49181 L58.91346,348.22817 C58.9216588,357.670107 66.5738126,365.322266 76.01575,365.33047 L221.0432,365.33047 C230.487095,365.326988 238.142013,357.672065 238.145529,348.22817 L238.145529,345.49181 C238.154018,341.489668 236.748588,337.613143 234.17722,334.54634 C233.321522,333.528032 232.353108,332.610044 231.29054,331.80997 L156.06784,331.80997 C154.179081,331.809225 152.648125,330.278269 152.64738,328.38951 L76.01575,328.38951 C66.5758271,328.40257 58.9265145,336.051887 58.91346,345.49181 L58.91346,345.49181 Z" id="Path" fill="#E0E0E0"></path>
            <rect id="Rectangle" fill="#E0E0E0" transform="translate(147.851940, 427.587480) rotate(-180.000000) translate(-147.851940, -427.587480) " x="138.95875" y="364.65104" width="17.78638" height="125.87288"></rect>
            <path d="M88.33596,489.89908 C88.33596,491.82087 115.28845,490.64242 148.53603,490.64242 C181.78361,490.64242 208.7361,491.82087 208.7361,489.89908 C208.7361,487.97729 181.78361,472.73753 148.53603,472.73753 C115.28845,472.73753 88.33596,487.97729 88.33596,489.89908 Z" id="Path" fill="#E0E0E0"></path>
            <polygon id="Path" fill="#A0616A" points="239.093 474.5 256.084 474.499 264.167 408.962 239.09 408.963"></polygon>
            <path d="M234.75891,468.95235 L268.2203,468.951 L268.22166,468.951 C279.998317,468.951618 289.545087,478.498223 289.54591,490.27488 L289.54591,490.96783 L234.75997,490.96983 L234.75891,468.95235 Z" id="Path" fill="#212121"></path>
            <polygon id="Path" fill="#A0616A" points="173.322 439.693 159.556 449.653 114.588 401.297 134.905 386.597"></polygon>
            <path d="M186.48759,450.496 L142.10179,482.61141 L141.69556,482.05002 C134.792422,472.508738 136.930198,459.178023 146.47063,452.27371 L146.47173,452.27291 L173.58113,432.658 L186.48759,450.496 Z" id="Path" fill="#212121"></path>
            <path d="M191.91825,184.93837 C191.91825,184.93837 174.0916,171.5859 154.81638,184.93837 L141.47559,296.20894 L181.533,296.20894 L187.46743,260.60236 L200.81991,207.19249 L191.91825,184.93837 Z" id="Path" fill="#212121"></path>
            <path d="M232.04862,356.78735 L160.15613,333.312 L125.88338,360.50877 L162.29238,416.17049 L143.24938,441.14496 L142.70469,440.52472 C140.34218,437.83395 84.84376,374.41133 85.0040818,356.42312 C85.16378,338.58534 91.07385,320.65387 91.13357,320.4744 L109.1617,294.885 L134.74882,287.36033 L219.45912,299.2491 L219.59735,299.26889 L253.82326,320.101 C260.683135,324.508603 265.172315,331.790989 266.02809,339.89978 C267.49785,353.128 270.45322,459.06065 270.48291,460.12958 L270.50238,460.82371 L233.53491,460.82371 L232.04862,356.78735 Z" id="Path" fill="#212121"></path>
            <path d="M186.45125,330.20818 C173.9561,324.65507 157.9985,302.97183 155.36843,299.31506 C150.22705,302.11406 112.73236,322.15301 102.16225,317.00106 C100.62683,317.84827 93.6871,321.98935 92.43705,328.23792 L92.12364,329.80567 L91.21769,328.48867 C91.05076,328.24586 74.76589,304.03151 95.83286,288.98216 C115.04175,275.26237 120.20952,261.40138 120.75086,259.81516 L110.32823,204.72616 L110.60172,204.47216 C111.45653,203.67838 131.74655,185.00988 150.25999,182.78957 L161.68029,180.77643 L162.17978,224.25378 L162.17978,279.9135 C171.40751,278.75352 186.00591,181.5 186.00591,181.5 L193.63446,184.29526 C195.60569,184.67334 217.75746,189.09815 223.63615,197.91608 L223.82715,198.20244 L203.67899,252.67644 L197.7864,261.54844 L197.7864,272.90473 L232.21125,302.83973 L231.72232,303.35173 C230.54915,304.58032 205.16459,330.98266 190.3772,330.980019 C189.028922,331.000843 187.691145,330.738276 186.45125,330.20818 L186.45125,330.20818 Z" id="Path" fill="#424242"></path>
            <circle id="Oval" fill="#A0616A" transform="translate(173.329155, 136.475391) rotate(-61.336800) translate(-173.329155, -136.475391) " cx="173.329155" cy="136.475391" r="33.18996"></circle>
            <path d="M164.97219,340.09261 C165.453437,336.276872 167.600097,332.870277 170.834549,330.789466 C174.069001,328.708655 178.058996,328.167374 181.73091,329.31127 L200.75422,306.50694 L217.4319,314.68738 L190.11505,346.5142 C187.732271,352.691172 181.105991,356.109675 174.691285,354.471332 C168.27658,352.83299 164.101111,346.655676 164.97219,340.09261 L164.97219,340.09261 Z" id="Path" fill="#A0616A"></path>
            <path d="M178.41785,320.75417 L208.26185,280.46511 L200.86948,240.54687 L212.86248,195.57369 L213.16435,195.44437 C213.40618,195.34011 219.14635,192.92185 223.51535,194.73437 C225.322065,195.480161 226.734408,196.947758 227.41035,198.78175 C230.37957,206.20481 237.53771,281.80322 237.84057,285.14855 C237.77957,285.75955 236.3101,300.1781 233.32174,306.15481 C230.34724,312.10381 203.21612,342.12069 202.06274,343.39681 L201.58602,343.92336 L178.41785,320.75417 Z" id="Path" fill="#424242"></path>
            <path d="M201.84008,127.93286 C190.79208,141.82767 171.8568,139.28151 156.70624,134.19694 C157.587641,145.320265 154.567231,156.403264 148.16406,165.54135 C150.12057,157.65992 141.87836,156.09145 137.06883,153.16054 C135.21715,150.81664 136.75547,147.31828 135.99549,144.42989 C127.35957,134.30475 121.63704,126.66589 132.72249,114.78438 C139.2117,106.09789 147.00049,95.25246 159.36436,97.53416 C169.1475,86.12151 185.17968,89.08965 196.11854,97.07287 C201.03634,100.711713 205.509808,104.915478 209.44704,109.5978 C208.188239,115.759323 205.843968,121.64796 202.52367,126.9888" id="Path" fill="#212121"></path>
            <path d="M382,493 L1,493 C0.44771525,493 2.84217094e-14,492.552285 2.84217094e-14,492 C2.84217094e-14,491.447715 0.44771525,491 1,491 L382,491 C382.552285,491 383,491.447715 383,492 C383,492.552285 382.552285,493 382,493 Z" id="Path" fill="#BDBDBD"></path>
            <path d="M193.01538,358.37784 L155.12182,358.37784 C156.54266,340.89337 161.12382,324.56662 155.12182,312.90563 L193.01532,312.90563 C200.14984,328.063023 200.14986,343.220427 193.01538,358.37784 Z" id="Path" fill="#7BC867"></path>
            <path d="M176.45846,349.794 C175.977235,345.978243 173.830574,342.571624 170.596106,340.490808 C167.361637,338.409992 163.37162,337.868728 159.6997,339.01266 L140.6764,316.20833 L123.99871,324.38877 L151.31561,356.21558 C153.698405,362.392525 160.324667,365.811004 166.739354,364.172668 C173.154041,362.534333 177.329509,356.35705 176.45846,349.794 Z" id="Path" fill="#A0616A"></path>
            <path d="M139.58667,345.70885 C137.88531,344.43274 97.86677,314.35385 93.39578,305.41319 C88.91819,296.45669 90.02802,269.93624 90.08609,268.73008 C90.1557,268.31308 97.12282,226.86733 103.01609,212.1347 C109.13071,196.84848 124.51063,202.79418 124.66536,202.85621 L125.1302,203.04228 L118.43329,281.17311 L154.96199,329.63017 L140.07958,346.07835 L139.58667,345.70885 Z" id="Path" fill="#424242"></path>
        </g>
    </g>
</svg>