<?xml version="1.0" encoding="UTF-8"?>
<svg width="856px" height="677px" viewBox="0 0 856 677" version="1.1" xmlns="http://www.w3.org/2000/svg" xmlns:xlink="http://www.w3.org/1999/xlink">
    <title>undraw_Tree_swing_646s</title>
    <g id="Page-1" stroke="none" stroke-width="1" fill="none" fill-rule="evenodd">
        <g id="undraw_Tree_swing_646s" fill-rule="nonzero">
            <path d="M597.315981,584.85334 L595.31597,584.85334 L595.31597,366.00568 C595.31877,364.200016 594.505468,362.489785 593.10308,361.35236 L594.36676,359.80158 C596.236008,361.318351 597.319895,363.598469 597.315981,366.00568 L597.315981,584.85334 Z" id="Path" fill="#3F3D56"></path>
            <path d="M393.57997,23.23284 C394.097388,24.413513 394.483052,25.6476358 394.72997,26.91284 C394.17004,24.98284 393.73004,23.67284 393.57997,23.23284 Z" id="Path" fill="#3F3D56"></path>
            <path d="M411.31997,84.37284 C411.31997,84.37284 411.31997,85.75284 409.82997,90.73284 L411.31997,84.37284 Z" id="Path" fill="#3F3D56"></path>
            <path d="M593.91003,292.68284 C554.58003,313.18284 503.13003,330.88284 487.72003,336.01284 C499.47003,332.95284 533.67003,328.83284 586.66003,361.89284 C653.24003,403.42284 724.43003,375.73284 724.43003,375.73284 C724.43003,375.73284 708.61003,406.06284 674.99003,408.03284 C641.36997,410.01284 553.70003,354.64284 524.04003,370.46284 C494.37003,386.28284 480.53003,366.50284 468.66003,406.06284 C456.80003,445.61284 435.05003,553.71284 460.10003,614.36284 L485.13997,675.00284 L342.75997,675.00284 C342.75997,675.00284 394.17997,537.89284 365.82997,453.52284 C349.95997,406.27284 327.67997,372.05284 319.36997,354.66284 C315.19997,345.95284 314.53997,341.47284 319.93997,341.69284 C323.00997,341.82284 328.03997,343.47284 335.50997,346.73284 C335.50997,346.73284 301.22997,313.11284 290.02997,313.11284 C278.81997,313.11284 226.07997,307.84284 208.94997,290.04284 C208.94997,290.04284 184.55997,272.90284 141.04997,315.09284 C97.53997,357.28284 108.08997,357.28284 69.19997,353.98284 C30.91997,350.73284 0.92997,332.16284 -2.99999999e-05,331.58284 C1.10997,332.03284 45.81997,349.90284 73.14997,340.80284 C100.83997,331.57284 124.56997,296.63284 148.95997,284.77284 C173.34997,272.90284 187.84997,257.08284 220.80997,274.22284 L199.08997,223.01284 L193.13997,208.98284 L193.12997,208.96284 C193.12997,208.96284 185.86997,112.72284 172.02997,106.13284 C158.18997,99.53284 166.75997,82.40284 141.04997,79.10284 C141.04997,79.10284 172.68997,75.14284 178.61997,96.90284 C184.55997,118.65284 225.43003,235.99284 225.43003,235.99284 C225.43003,235.99284 250.47003,286.08284 278.16003,274.22284 C305.85003,262.35284 267.61003,195.78284 267.61003,195.78284 L220.15003,174.02284 C220.15003,174.02284 255.75003,172.70284 277.50003,193.14284 C299.25003,213.57284 300.57003,279.49284 300.57003,279.49284 C300.57003,279.49284 355.28003,287.40284 368.47003,317.07284 C368.47003,317.07284 377.04003,290.70284 360.56003,274.88284 C356.44003,270.92284 352.11008,264.04284 347.94003,255.95284 C332.132863,224.901843 326.420151,189.688606 331.60003,155.23284 C334.05003,138.37284 335.56003,121.88284 332.87003,117.99284 C326.94003,109.42284 301.89003,56.69284 299.91003,42.84284 C297.94003,29.00284 301.89003,0.00284 301.89003,0.00284 C301.89003,0.00284 302.55003,35.59284 310.46003,46.80284 C318.37003,58.01284 340.78003,113.38284 340.78003,113.38284 C340.78003,113.38284 340.78003,183.25284 359.24003,217.53284 C377.70003,251.81284 413.29003,290.04284 411.31998,315.09284 L411.31998,329.59284 C411.31998,329.59284 450.86998,292.02284 448.22998,279.49284 C445.58998,266.97284 442.29998,237.30284 417.24998,219.51284 C392.19998,201.71284 375.71998,173.36284 393.51998,132.49284 C403.52998,109.50284 407.90998,97.15284 409.82998,90.74284 L399.44998,135.13284 C399.44998,135.13284 392.85998,180.61284 411.31998,196.43284 C411.36998,196.47284 411.40998,196.51284 411.45998,196.55284 C429.88998,212.39284 454.15998,241.26284 454.15998,241.26284 L454.08998,239.99284 L448.88998,146.34284 L450.02998,148.84284 L458.24998,166.86284 L466.02998,183.91284 C466.02998,183.91284 502.93998,136.45284 546.44998,120.63284 C589.94998,104.81284 616.97998,49.44284 616.97998,49.44284 L653.89998,20.43284 L623.56998,56.69284 C623.56998,56.69284 614.33998,99.53284 562.26998,129.86284 C510.18998,160.18284 476.57998,205.00284 474.59998,232.69284 C472.61998,260.38284 470.63998,284.77284 470.63998,284.77284 C470.63998,284.77284 568.19998,281.47284 589.94998,238.62284 C611.70998,195.78284 629.50998,193.80284 629.50998,193.80284 L616.97998,230.71284 L603.13998,262.35284 C603.13998,262.35284 659.82998,263.67284 689.48998,297.29284 C719.15998,330.91284 792.97998,340.80284 792.97998,340.80284 L751.45998,352.00284 C751.45998,352.00284 711.89998,338.82284 674.32998,314.43284 C636.75998,290.04284 640.71002,268.29284 593.91003,292.68284 Z" id="Path" fill="#757575"></path>
            <path d="M614.93002,202.74284 C610.76002,221.20284 605.85002,239.03284 598.95002,252.62284 C577.20002,295.47284 479.64002,298.77284 479.64002,298.77284 C479.64002,298.77284 480.10002,293.11284 480.80002,284.18284 C505.57002,282.14284 573.28002,273.43284 590.95002,238.62284 C592.57002,235.44284 594.07002,232.02284 595.49002,228.42284 L614.93002,202.74284 Z" id="Path" fill="#000000" opacity="0.1"></path>
            <path d="M463.16003,255.26284 C463.16003,255.26284 438.77003,226.25284 420.32003,210.43284 C416.27003,206.97284 413.43008,202.07284 411.46003,196.55284 C411.30003,196.11284 411.15003,195.66284 411.00003,195.21284 C411.43003,195.63284 411.86003,196.04284 412.32003,196.43284 C428.47003,210.28284 449.18008,234.24284 454.09003,239.99284 C454.78003,240.81284 455.16003,241.26284 455.16003,241.26284 L450.03003,148.84284 L458.25003,166.86284 L463.16003,255.26284 Z" id="Path" fill="#000000" opacity="0.1"></path>
            <path d="M477.27853,172.03027 C477.13461,188.25994 475.02817,197.91272 475.02817,197.91272 C475.02817,197.91272 511.92709,150.47172 555.42148,134.64117 C557.99203,133.01495 560.59994,131.41381 563.26913,129.85955 C615.34482,99.53698 624.57346,56.68994 624.57346,56.68994 L654.89596,20.43475 L617.98154,49.4389 C617.98154,49.4389 590.95492,104.81048 547.44882,120.6309 C517.79306,131.41484 491.20497,156.89624 477.27853,172.03027 Z" id="Path" fill="#000000" opacity="0.1"></path>
            <path d="M420.31576,329.09063 L420.31576,343.59271 C420.31576,343.59271 459.86691,306.01916 457.23007,293.49462 C455.21371,283.91632 452.79941,264.31781 440.57675,247.66473 C446.08615,260.24973 447.76303,272.52563 449.23007,279.49462 C451.12094,288.47589 431.31869,310.33662 419.96249,321.98762 C420.360893,324.33297 420.479479,326.717322 420.31576,329.09063 L420.31576,329.09063 Z" id="Path" fill="#000000" opacity="0.1"></path>
            <path d="M367.26157,229.56984 C367.5748,230.23793 367.8978,230.89534 368.24008,231.53114 C378.34848,250.30385 393.58808,270.25899 404.99033,288.58894 C395.77497,270.43658 379.73764,249.67901 367.26157,229.56984 Z" id="Path" fill="#000000" opacity="0.1"></path>
            <path d="M587.65903,361.89284 C565.97458,348.3669 547.44003,341.0677 532.29941,337.36964 C516.41708,343.34764 503.34531,347.80489 496.76791,349.99348 C508.56406,346.93996 542.73959,342.88368 595.65903,375.89284 C637.17953,401.79164 680.49203,400.77077 707.21493,396.33418 C714.605438,390.758164 720.799457,383.753197 725.4288,375.73567 C725.4288,375.73567 654.23679,403.42144 587.65903,361.89284 Z" id="Path" fill="#000000" opacity="0.1"></path>
            <path d="M399.39841,201.50604 C394.08273,188.4815 393.20688,172.98346 399.31381,154.82269 C399.237369,148.241101 399.617145,141.662126 400.45041,135.13305 L410.82997,90.73184 C408.91628,97.13491 404.53774,109.48751 394.51772,132.4963 C381.83285,161.62457 386.56697,184.38584 399.39841,201.50604 Z" id="Path" fill="#000000" opacity="0.1"></path>
            <path d="M690.49203,297.2926 C669.92038,273.97808 636.3558,266.20007 617.71003,263.62121 L612.13874,276.35577 C612.13874,276.35577 668.82868,277.67419 698.49201,311.2926 C714.9416,329.93554 744.96907,341.27789 768.46028,347.68621 L793.98408,340.79888 C793.98408,340.79888 720.15536,330.91107 690.49203,297.2926 Z" id="Path" fill="#000000" opacity="0.1"></path>
            <path d="M287.16025,288.22113 C314.84604,276.35577 276.61337,209.77807 276.61337,209.77807 L275.56747,209.2987 C285.09909,229.40918 298.92282,265.75146 279.16025,274.22113 C260.66782,282.14648 243.35425,262.42895 233.8934,248.45913 C234.23691,249.44713 234.42551,249.98843 234.42551,249.98843 C234.42551,249.98843 259.47446,300.08648 287.16025,288.22113 Z" id="Path" fill="#000000" opacity="0.1"></path>
            <path d="M377.46872,331.06817 C377.46872,331.06817 385.81113,305.35345 370.13901,289.47674 C373.98215,303.15429 369.46872,317.06817 369.46872,317.06817 C359.27011,294.12146 324.22629,284.19409 308.87656,280.87402 C309.47189,288.51373 309.57256,293.49462 309.57256,293.49462 C309.57256,293.49462 364.28497,301.40484 377.46872,331.06817 Z" id="Path" fill="#000000" opacity="0.1"></path>
            <path d="M410.82997,90.73184 C412.31545,85.76144 412.31581,84.37576 412.31581,84.37576 L410.82997,90.73184 Z" id="Path" fill="#000000" opacity="0.1"></path>
            <path d="M81.75363,354.92484 C81.88657,354.88205 82.02158,354.84293 82.15363,354.79892 C109.83942,345.57029 133.57013,310.63346 157.96002,298.76816 C182.34991,286.90286 196.85187,271.08237 229.8111,288.22116 C229.8111,288.22116 224.04498,264.6188 212.8711,249.11233 C216.572124,257.207449 219.563354,265.608602 221.8111,274.22116 C188.85187,257.08236 174.34979,272.9028 149.96002,284.76816 C125.57025,296.63352 101.83942,331.57029 74.15363,340.79892 C46.46784,350.02755 0.98407,331.57029 0.98407,331.57029 C0.98407,331.57029 31.30658,350.68668 70.19855,353.98258 C74.64755,354.35955 78.44369,354.69226 81.75363,354.92484 Z" id="Path" fill="#000000" opacity="0.1"></path>
            <path d="M202.12997,222.96284 C202.12997,222.96284 201.04997,222.98284 199.08997,223.01284 L193.13997,208.98284 C193.78997,208.97284 194.12997,208.96284 194.12997,208.96284 C194.12997,208.96284 189.54997,148.26289 180.72997,119.97284 C180.83997,120.02284 180.92997,120.08284 181.02997,120.13284 C194.86997,126.72284 202.12997,222.96284 202.12997,222.96284 Z" id="Path" fill="#000000" opacity="0.1"></path>
            <path d="M356.57602,675.00584 C368.65414,637.98027 397.70102,535.59471 374.83202,467.51952 C364.95592,438.12071 355.80175,419.37395 348.0631,407.41417 C353.85033,418.7357 360.1776,433.71105 366.83202,453.51952 C395.17697,537.89526 343.76047,675.00584 343.76047,675.00584 L356.57602,675.00584 Z" id="Path" fill="#000000" opacity="0.1"></path>
            <path d="M344.50997,360.73284 C336.55597,357.235468 328.0435,355.18015 319.36997,354.66284 C315.19997,345.95284 314.53997,341.47284 319.93997,341.69284 C321.43997,341.96284 322.94997,342.28284 324.44997,342.65284 C335.05004,351.45284 344.50997,360.73284 344.50997,360.73284 Z" id="Path" fill="#000000" opacity="0.1"></path>
            <path d="M166.05514,99.72961 C166.807059,100.995816 167.71808,102.160488 168.76596,103.19519 C167.996312,101.941203 167.086891,100.778576 166.05514,99.72961 L166.05514,99.72961 Z" id="Path" fill="#000000" opacity="0.1"></path>
            <path d="M286.50107,207.14135 C287.519953,208.104856 288.474596,209.134102 289.35886,210.22247 C286.47128,203.28094 282.90536,197.27856 278.50107,193.14135 C256.74807,172.7066 221.15195,174.02496 221.15195,174.02496 L265.79306,194.48547 C273.442459,197.339149 280.472497,201.635617 286.50107,207.14135 L286.50107,207.14135 Z" id="Path" fill="#000000" opacity="0.1"></path>
            <path d="M333.87265,117.9942 C336.56284,121.87988 335.05136,138.37011 332.59555,155.2352 C327.417735,189.68967 333.132458,224.900992 348.94125,255.94938 C351.041187,260.10426 353.386606,264.130445 355.96506,268.00657 C340.899756,237.417195 335.537345,202.955932 340.59555,169.2352 C343.05136,152.3702 344.56284,135.87992 341.87265,131.9942 C335.94003,123.4248 310.89096,70.68994 308.91342,56.84704 C308.320499,51.4766476 308.182341,46.0657633 308.50042,40.67211 C303.37993,26.14361 302.89092,0 302.89092,0 C302.89092,0 298.93584,29.00421 300.91338,42.847 C302.89092,56.68979 327.94003,109.42484 333.87265,117.9942 Z" id="Path" fill="#000000" opacity="0.1"></path>
            <path d="M395.71432,26.86425 C395.450198,25.5613749 395.049086,24.2900708 394.51767,23.07153 C394.51767,23.07153 395.02426,24.4942 395.71432,26.86425 Z" id="Path" fill="#000000" opacity="0.1"></path>
            <path d="M162.8873,93.25284 C168.69687,93.96402 175.37949,95.7465 180.4769,99.88035 C180.14438,98.75571 179.85434,97.74753 179.62338,96.90035 C173.69064,75.14724 142.04977,79.10235 142.04977,79.10235 C156.34872,80.93548 160.04208,87.05139 162.8873,93.25284 Z" id="Path" fill="#000000" opacity="0.1"></path>
            <path d="M784.51438,641.1377 C774.68338,656.21395 777.37711,675.389 777.37711,675.389 C777.37711,675.389 796.00995,670.12062 805.84092,655.04437 C815.67189,639.96812 812.97819,620.79307 812.97819,620.79307 C812.97819,620.79307 794.34535,626.06145 784.51438,641.1377 Z" id="Path" fill="#212121"></path>
            <path d="M791.89902,643.80322 C791.12196,661.78481 777.77384,675.81215 777.77384,675.81215 C777.77384,675.81215 765.6856,660.68559 766.46266,642.70401 C767.23972,624.72243 780.58784,610.69508 780.58784,610.69508 C780.58784,610.69508 792.67609,625.82164 791.89902,643.80322 Z" id="Path" fill="#378C21"></path>
            <path d="M618.74567,530.01031 C618.74567,530.01031 630.05767,518.14299 634.68742,520.53047 C639.31717,522.91795 621.37552,533.52991 621.37552,533.52991 L618.74567,530.01031 Z" id="Path" fill="#FFB9B9"></path>
            <path d="M618.74567,530.01031 C618.74567,530.01031 630.05767,518.14299 634.68742,520.53047 C639.31717,522.91795 621.37552,533.52991 621.37552,533.52991 L618.74567,530.01031 Z" id="Path" fill="#000000" opacity="0.1"></path>
            <path d="M584.23186,504.10903 C584.23186,504.10903 580.07358,511.56241 581.16171,519.5972 C582.24984,527.63199 592.20113,553.41461 595.5842,552.95645 C598.96727,552.49829 624.02737,534.03206 624.02737,534.03206 L619.24782,527.35847 L600.94057,538.45057 C600.94057,538.45057 598.15174,498.77877 584.23186,504.10903 Z" id="Path" fill="#D0CDE1"></path>
            <path d="M652.11366,522.25335 L623.57425,537.92967 C623.239364,538.152182 622.823145,538.215004 622.437504,538.101243 C622.051863,537.987483 621.73638,537.708816 621.57588,537.34017 L614.58457,522.72663 C614.310759,521.86565 614.708435,520.933953 615.51957,520.53606 L639.21446,508.3227 C639.818803,507.959263 640.599795,508.108569 641.02746,508.6693 L652.86334,519.81984 C653.098802,520.239532 653.151886,520.737412 653.010206,521.197314 C652.868526,521.657217 652.544475,522.038915 652.11366,522.25335 Z" id="Path" fill="#2F2E41"></path>
            <polygon id="Path" fill="#7BC867" points="650.209 520.094 623.454 535.387 616.334 522.555 639.286 510.073"></polygon>
            <ellipse id="Oval" fill="#F2F2F2" transform="translate(627.503031, 515.459242) rotate(-50.158480) translate(-627.503031, -515.459242) " cx="627.503031" cy="515.459242" rx="1" ry="1"></ellipse>
            <ellipse id="Oval" fill="#F2F2F2" transform="translate(637.436926, 528.587700) rotate(-50.158480) translate(-637.436926, -528.587700) " cx="637.436926" cy="528.5877" rx="1" ry="1"></ellipse>
            <path d="M584.23186,504.10903 C584.23186,504.10903 580.07358,511.56241 581.16171,519.5972 C582.24984,527.63199 592.20113,553.41461 595.5842,552.95645 C598.96727,552.49829 624.02737,534.03206 624.02737,534.03206 L619.24782,527.35847 L600.94057,538.45057 C600.94057,538.45057 598.15174,498.77877 584.23186,504.10903 Z" id="Path" fill="#000000" opacity="0.1"></path>
            <path d="M611.09797,532.27793 C611.09797,532.27793 623.90029,522.03607 628.16773,525.02328 C632.43517,528.01049 613.23173,536.11863 613.23173,536.11863 L611.09797,532.27793 Z" id="Path" fill="#FFB9B9"></path>
            <circle id="Oval" fill="#FFB9B9" cx="594.02819" cy="478.93493" r="12.37558"></circle>
            <path d="M636.70259,565.13722 C636.70259,565.13722 649.93166,566.84422 649.50491,574.95234 C649.07816,583.06046 639.26306,616.77326 639.26306,616.77326 L638.40957,630.00232 C638.40957,630.00232 639.26306,652.19302 636.70257,651.76632 C634.14208,651.33962 628.16769,635.97679 628.16769,635.97679 C628.16769,635.97679 620.91304,631.28261 624.32699,627.01517 C627.74094,622.74773 630.30141,623.17447 629.44792,618.48028 C628.59443,613.78609 629.02118,594.15587 631.58164,588.18145 C634.1421,582.20703 635.63407,578.91186 635.63407,578.91186 L627.3142,578.36634 L636.70259,565.13722 Z" id="Path" fill="#FFB9B9"></path>
            <path d="M636.70259,565.13722 C636.70259,565.13722 649.93166,566.84422 649.50491,574.95234 C649.07816,583.06046 639.26306,616.77326 639.26306,616.77326 L638.40957,630.00232 C638.40957,630.00232 639.26306,652.19302 636.70257,651.76632 C634.14208,651.33962 628.16769,635.97679 628.16769,635.97679 C628.16769,635.97679 620.91304,631.28261 624.32699,627.01517 C627.74094,622.74773 630.30141,623.17447 629.44792,618.48028 C628.59443,613.78609 629.02118,594.15587 631.58164,588.18145 C634.1421,582.20703 635.63407,578.91186 635.63407,578.91186 L627.3142,578.36634 L636.70259,565.13722 Z" id="Path" fill="#000000" opacity="0.1"></path>
            <path d="M637.55608,567.27095 C637.55608,567.27095 650.3584,570.25815 651.63863,578.79304 C652.91886,587.32793 659.32003,612.50582 659.32003,612.50582 L666.14793,628.29535 C666.14793,628.29535 676.81653,647.49883 672.12235,647.07209 C667.42817,646.64535 661.027,637.25697 658.89328,637.25697 C656.75956,637.25697 650.3584,634.69651 650.78515,632.98953 C651.2119,631.28255 654.19915,626.16163 654.19915,626.16163 L643.87461,608.17695 C641.881081,604.705245 640.374259,600.975973 639.39646,597.09386 C638.33589,592.88168 637.12939,587.72195 637.12939,586.04768 C637.12939,583.06048 628.5945,581.78024 628.5945,581.78024 L637.55608,567.27095 Z" id="Path" fill="#FFB9B9"></path>
            <path d="M595.73516,539.95932 L601.70958,557.02909 C601.70958,557.02909 611.09795,559.58955 617.92585,561.72327 C624.75375,563.85699 637.55608,560.86978 638.83631,565.99071 C640.11654,571.11164 636.27585,580.07327 632.43515,582.20699 C628.59445,584.34071 626.46073,586.47443 614.08515,583.06048 C601.70957,579.64653 572.26423,578.79304 572.26423,578.79304 C569.409818,580.505675 566.195111,581.528533 562.87586,581.78024 C557.32818,582.20699 556.04795,582.63373 554.34098,581.3535 C552.63401,580.07327 555.19446,580.07327 556.04798,576.65931 C556.9015,573.24535 557.32821,574.52559 561.16891,570.6849 C565.00961,566.84421 567.99682,555.32211 570.13054,551.48141 C572.26426,547.64071 573.54454,539.95932 573.54454,539.95932 L595.73516,539.95932 Z" id="Path" fill="#212121"></path>
            <path d="M594.88167,489.17678 C591.739438,491.472568 589.846204,495.101266 589.76074,498.99189 C589.76074,505.39305 576.95842,492.16399 576.95842,492.16399 C576.95842,492.16399 583.78633,483.62911 583.78633,481.06864 C583.78633,478.50817 594.88167,489.17678 594.88167,489.17678 Z" id="Path" fill="#FFB9B9"></path>
            <path d="M578.6654,486.61632 C578.6654,486.61632 586.34679,489.60352 588.05377,493.87096 C589.76075,498.1384 596.1619,507.10003 596.1619,507.10003 C596.1619,507.10003 605.12353,516.4884 602.13632,526.73026 C599.14911,536.97212 596.58865,539.53258 596.58865,541.23956 C596.58865,542.94654 592.32121,545.93374 588.90726,545.507 C585.49331,545.08026 572.69098,543.37328 571.83749,541.6663 C570.984,539.95932 565.86308,515.63491 569.27703,506.6733 C572.046479,499.824961 575.180417,493.129728 578.6654,486.61632 L578.6654,486.61632 Z" id="Path" fill="#EEEEEE"></path>
            <path d="M597.61759,479.49805 C600.38699,480.15532 603.10472,478.39083 605.37395,476.64141 C606.66251,475.64802 608.08067,474.23141 607.68586,472.63261 C607.33561,471.21425 605.6647,470.4103 605.42152,468.96877 C605.25252,467.96708 605.83805,466.99254 605.88552,465.97725 C605.799851,464.399854 604.841517,463.001958 603.40111,462.35331 C602.05181,461.62673 600.5215,461.32381 599.13536,460.67358 C597.01863,459.68058 595.25944,457.89066 592.99877,457.31729 C589.91037,456.53397 586.76565,458.20177 583.59046,458.41768 C581.66893,458.54834 579.72286,458.14316 577.82198,458.45838 C574.090413,459.21293 571.362604,462.427168 571.22498,466.23177 C571.20049,467.58996 571.4719,469.10526 570.66146,470.18241 C570.341161,470.553403 569.97645,470.883595 569.57554,471.16555 C566.75182,473.44905 565.46979,477.26406 565.32403,480.93942 C565.25229,482.74836 565.6312,484.89725 567.2361,485.66618 C568.095784,485.960401 569.00402,486.086584 569.91135,486.03786 C570.836968,485.998957 571.72169,486.421354 572.27341,487.16559 C573.00441,488.4552 571.90916,490.35998 572.86541,491.4854 C573.58371,492.33075 574.98476,492.04999 575.82362,491.32968 C576.66248,490.60937 577.18562,489.57343 577.9808,488.8032 C579.52765,487.30493 581.82214,487.03334 583.94236,486.80557 C584.570659,486.80074 585.181852,486.60032 585.69101,486.23216 C586.076246,485.827882 586.326792,485.314197 586.4082,484.76173 C586.687428,483.490289 586.691032,482.173781 586.41877,480.90083 C586.284256,480.506746 586.267284,480.082042 586.36992,479.67848 C586.510062,479.391666 586.726644,479.149094 586.99581,478.97748 C588.30992,477.99035 590.61201,476.55308 592.31981,476.82495 C594.21497,477.12661 595.7059,479.04435 597.61759,479.49805 Z" id="Path" fill="#212121"></path>
            <path d="M580.37237,501.9791 C580.37237,501.9791 575.25145,508.80701 575.25145,516.9151 C575.25145,525.02319 581.65261,551.9081 585.06656,551.9081 C588.48051,551.9081 615.79213,536.9721 615.79213,536.9721 L611.95144,529.71745 L592.32121,538.25233 C592.32121,538.25233 594.88167,498.56515 580.37237,501.9791 Z" id="Path" fill="#EEEEEE"></path>
            <rect id="Rectangle" fill="#378C21" x="540.31577" y="579.00586" width="98" height="19"></rect>
            <path d="M589.31597,599.00568 C584.899785,599.000632 581.321018,595.421865 581.31597,591.00568 L581.31597,366.00568 C581.31597,362.918105 583.092801,360.106152 585.881326,358.78054 C588.669851,357.454928 591.972297,357.852306 594.36676,359.80158 L593.10308,361.35236 C591.307292,359.890554 588.830585,359.592653 586.739377,360.586926 C584.648169,361.5812 583.315804,363.690139 583.31597,366.00568 L583.31597,591.00568 C583.319585,594.31789 586.00376,597.002065 589.31597,597.00568 L589.31597,599.00568 Z" id="Path" fill="#3F3D56"></path>
            <rect id="Rectangle" fill="#BDBDBD" x="49.31595" y="674.00569" width="806" height="2"></rect>
            <ellipse id="Oval" fill="#378C21" transform="translate(572.315767, 471.005927) rotate(-38.768250) translate(-572.315767, -471.005927) " cx="572.315767" cy="471.005927" rx="1" ry="3"></ellipse>
            <path d="M488.51438,641.1377 C478.68338,656.21395 481.37711,675.389 481.37711,675.389 C481.37711,675.389 500.00995,670.12062 509.84092,655.04437 C519.67189,639.96812 516.97819,620.79307 516.97819,620.79307 C516.97819,620.79307 498.34535,626.06145 488.51438,641.1377 Z" id="Path" fill="#212121"></path>
            <path d="M495.89902,643.80322 C495.12196,661.78481 481.77384,675.81215 481.77384,675.81215 C481.77384,675.81215 469.6856,660.68559 470.46266,642.70401 C471.23972,624.72243 484.58784,610.69508 484.58784,610.69508 C484.58784,610.69508 496.67609,625.82164 495.89902,643.80322 Z" id="Path" fill="#378C21"></path>
            <path d="M326.72539,646.84075 C331.42539,664.21462 347.52377,674.97475 347.52377,674.97475 C347.52377,674.97475 356.00206,657.56621 351.3021,640.19233 C346.60214,622.81845 330.50371,612.05833 330.50371,612.05833 C330.50371,612.05833 322.02543,629.46684 326.72539,646.84075 Z" id="Path" fill="#212121"></path>
            <path d="M333.63165,643.10691 C346.52841,655.66139 348.10365,674.96054 348.10365,674.96054 C348.10365,674.96054 328.76912,673.90486 315.87236,661.35039 C302.9756,648.79592 301.40036,629.49676 301.40036,629.49676 C301.40036,629.49676 320.73489,630.55244 333.63165,643.10691 Z" id="Path" fill="#378C21"></path>
            <path d="M290.88617,172.04661 C289.76499,190.01002 276.15077,203.77925 276.15077,203.77925 C276.15077,203.77925 264.35434,188.42403 265.47552,170.46062 C266.5967,152.49721 280.21091,138.72798 280.21091,138.72798 C280.21091,138.72798 292.00735,154.0832 290.88617,172.04661 Z" id="Path" fill="#378C21"></path>
            <path d="M148.96997,58.48507 C164.19507,68.08391 169.7483,86.63385 169.7483,86.63385 C169.7483,86.63385 150.61676,89.621 135.39167,80.02216 C120.16658,70.42332 114.61335,51.87338 114.61335,51.87338 C114.61335,51.87338 133.7449,48.88623 148.96997,58.48507 Z" id="Path" fill="#378C21"></path>
            <path d="M114.96997,277.48507 C130.19507,287.08391 135.7483,305.63385 135.7483,305.63385 C135.7483,305.63385 116.61676,308.621 101.39167,299.02216 C86.16658,289.42332 80.61335,270.87338 80.61335,270.87338 C80.61335,270.87338 99.7449,267.88623 114.96997,277.48507 Z" id="Path" fill="#378C21"></path>
            <path d="M424.4897,90.50111 C419.89823,107.90397 403.86726,118.76429 403.86726,118.76429 C403.86726,118.76429 395.28052,101.40898 399.87199,84.00612 C404.46346,66.60326 420.49443,55.74294 420.49443,55.74294 C420.49443,55.74294 429.08116,73.09825 424.4897,90.50111 Z" id="Path" fill="#378C21"></path>
            <path d="M569.32519,104.07054 C563.92864,121.24082 547.40952,131.34315 547.40952,131.34315 C547.40952,131.34315 539.63994,113.60697 545.03652,96.43669 C550.4331,79.26641 566.95219,69.16408 566.95219,69.16408 C566.95219,69.16408 574.72174,86.90026 569.32519,104.07054 Z" id="Path" fill="#378C21"></path>
            <path d="M725.86959,295.16771 C716.09411,310.27999 697.48075,315.61682 697.48075,315.61682 C697.48075,315.61682 694.7166,296.45182 704.49209,281.33952 C714.26758,266.22722 732.88097,260.89041 732.88097,260.89041 C732.88097,260.89041 735.64508,280.05543 725.86959,295.16771 Z" id="Path" fill="#378C21"></path>
        </g>
    </g>
</svg>